<?xml version="1.0" encoding="UTF-8" standalone="no"?>
<!-- Created with Inkscape (http://www.inkscape.org/) -->

<svg
   xmlns:dc="http://purl.org/dc/elements/1.1/"
   xmlns:cc="http://creativecommons.org/ns#"
   xmlns:rdf="http://www.w3.org/1999/02/22-rdf-syntax-ns#"
   xmlns:svg="http://www.w3.org/2000/svg"
   xmlns="http://www.w3.org/2000/svg"
   xmlns:sodipodi="http://sodipodi.sourceforge.net/DTD/sodipodi-0.dtd"
   xmlns:inkscape="http://www.inkscape.org/namespaces/inkscape"
   width="297mm"
   height="210mm"
   viewBox="0 0 297 210"
   version="1.1"
   id="svg8"
   inkscape:version="0.92.1 r15371"
   sodipodi:docname="unipolar-vs-biplar.svg">
  <sodipodi:namedview
     id="base"
     pagecolor="#ffffff"
     bordercolor="#666666"
     borderopacity="1.0"
     inkscape:pageopacity="0.0"
     inkscape:pageshadow="2"
     inkscape:zoom="0.98994949"
     inkscape:cx="-292.8289"
     inkscape:cy="549.60703"
     inkscape:document-units="mm"
     inkscape:current-layer="svg8"
     showgrid="false"
     inkscape:window-width="1745"
     inkscape:window-height="838"
     inkscape:window-x="2012"
     inkscape:window-y="53"
     inkscape:window-maximized="0" />
  <defs
     id="defs2" />
  <metadata
     id="metadata5">
    <rdf:RDF>
      <cc:Work
         rdf:about="">
        <dc:format>image/svg+xml</dc:format>
        <dc:type
           rdf:resource="http://purl.org/dc/dcmitype/StillImage" />
        <dc:title />
      </cc:Work>
    </rdf:RDF>
  </metadata>
  <g
     transform="translate(0,-87)"
     id="layer1"
     inkscape:groupmode="layer"
     inkscape:label="Layer 1" />
  <ellipse
     style="opacity:0.97000002;fill:#00ffff;fill-opacity:1;stroke:#000000;stroke-width:1;stroke-linecap:butt;stroke-linejoin:round;stroke-miterlimit:4;stroke-dasharray:none;stroke-dashoffset:0;stroke-opacity:1"
     id="path13575"
     cx="50.623592"
     cy="81.240852"
     rx="15.805457"
     ry="15.801582"
     inkscape:export-xdpi="118.56437"
     inkscape:export-ydpi="118.56437" />
  <text
     xml:space="preserve"
     style="font-style:normal;font-variant:normal;font-weight:normal;font-stretch:normal;font-size:4.74530745px;line-height:3.70727158px;font-family:'Bowlby One';-inkscape-font-specification:'Bowlby One, Normal';font-variant-ligatures:normal;font-variant-caps:normal;font-variant-numeric:normal;font-feature-settings:normal;text-align:start;letter-spacing:0px;word-spacing:0px;writing-mode:lr-tb;text-anchor:start;fill:#000000;fill-opacity:1;stroke:none;stroke-width:0.26458332px;stroke-linecap:butt;stroke-linejoin:miter;stroke-opacity:1"
     x="40.206543"
     y="82.524078"
     id="text13579"
     transform="scale(1.0001225,0.99987748)"
     inkscape:export-xdpi="118.56437"
     inkscape:export-ydpi="118.56437"><tspan
       sodipodi:role="line"
       id="tspan13577"
       x="40.206543"
       y="82.524078"
       style="font-size:4.74530745px;stroke-width:0.26458332px">MOTOR</tspan></text>
  <path
     id="path9370-6"
     style="fill:none;fill-rule:evenodd;stroke:#aa4400;stroke-width:1;stroke-linecap:butt;stroke-linejoin:miter;stroke-miterlimit:4;stroke-dasharray:none;stroke-opacity:1"
     d="m 29.619484,72.469412 c 0,0 0.759884,-0.595233 0.764008,-1.058883 0.0041,-0.463651 -0.3728,-0.864328 -0.833462,-1.200065 -0.460662,-0.335735 -1.337161,-0.671819 -1.875285,-0.564736 -0.538126,0.107084 -1.021383,0.471927 -1.041827,0.847105 -0.02046,0.375178 0.307165,0.501481 0.625096,0.635328 0.317932,0.133847 0.725763,0.168768 1.180735,0 0.454974,-0.168768 1.319646,-1.129473 1.319646,-1.129473 m -0.138911,4.839253 c 0,0 0.759884,-0.595231 0.764008,-1.058884 0.0041,-0.463653 -0.3728,-0.864325 -0.833462,-1.200064 -0.460662,-0.335732 -1.337161,-0.671819 -1.875285,-0.564735 -0.538126,0.107084 -1.021383,0.471926 -1.041827,0.847103 -0.02046,0.375176 0.307165,0.501479 0.625096,0.635329 0.317932,0.13385 0.725763,0.168766 1.180735,0 0.454974,-0.168766 1.319646,-1.129471 1.319646,-1.129471 m -0.138911,4.839251 c 0,0 0.759884,-0.595231 0.764008,-1.058884 0.0041,-0.463653 -0.3728,-0.864325 -0.833462,-1.200064 -0.460662,-0.335739 -1.337161,-0.67182 -1.875285,-0.564735 -0.538126,0.107084 -1.021383,0.471926 -1.041827,0.847103 -0.02046,0.375176 0.307165,0.501478 0.625096,0.635328 0.317932,0.133851 0.725763,0.168766 1.180735,0 0.454974,-0.168765 1.319646,-1.12947 1.319646,-1.12947 m -0.138911,7.20778 c 0,0 0.759884,-0.595231 0.764008,-1.058884 0.0041,-0.463653 -0.537588,-1.060285 -0.833462,-1.200064 -0.295875,-0.139787 -1.8569,-0.08742 -1.8569,-0.08742 0,0 1.35083,0.05131 1.813993,-0.171937 0.463165,-0.223219 0.872221,-0.445451 0.876369,-0.909104 0.0041,-0.463653 -0.3728,-0.864325 -0.833462,-1.200064 -0.460662,-0.335739 -1.337161,-0.67182 -1.875285,-0.564735 -0.538126,0.107084 -1.021384,0.471926 -1.041827,0.847103 -0.02046,0.375176 0.307165,0.501478 0.625096,0.635328 0.317932,0.13385 0.725763,0.168766 1.180735,0 0.454974,-0.168766 1.319646,-1.12947 1.319646,-1.12947 m -0.138911,7.207772 c 0,0 0.759884,-0.595224 0.764008,-1.058876 0.0041,-0.463653 -0.3728,-0.864325 -0.833462,-1.200064 -0.460662,-0.335732 -1.337161,-0.67182 -1.875285,-0.564735 -0.538126,0.107077 -1.021383,0.471926 -1.041827,0.847102 -0.02046,0.375184 0.307165,0.501486 0.625096,0.635329 0.317932,0.13385 0.725763,0.168773 1.180735,0 0.454974,-0.168766 1.319646,-1.12947 1.319646,-1.12947 m -0.138911,4.83925 c 0,0 0.759884,-0.595231 0.764008,-1.058884 0.0041,-0.463653 -0.3728,-0.864325 -0.833462,-1.200063 -0.460662,-0.335732 -1.337161,-0.67182 -1.875285,-0.564728 -0.538126,0.107077 -1.021383,0.471919 -1.041827,0.847094 -0.02046,0.375177 0.307165,0.501487 0.625096,0.635329 0.317932,0.133843 0.725763,0.168774 1.180735,0 0.454974,-0.168773 1.319646,-1.129469 1.319646,-1.129469 m -0.138911,4.83925 c 0,0 0.759872,-0.595239 0.764008,-1.058884 0.0041,-0.463653 -0.3728,-0.864325 -0.833462,-1.200064 -0.460662,-0.335739 -1.337161,-0.67182 -1.875285,-0.564735 -0.538126,0.107084 -1.021383,0.471919 -1.041827,0.847102 -0.02046,0.375177 0.307165,0.501479 0.625096,0.635329 0.317932,0.133843 0.725763,0.168773 1.180735,0 0.454974,-0.168773 1.319646,-1.12947 1.319646,-1.12947 m -0.138911,4.839251 c 0,0 0.759884,-0.595239 0.764008,-1.058884 0.0041,-0.463646 -0.3728,-0.864325 -0.833462,-1.200064 -0.460662,-0.33574 -1.337161,-0.67182 -1.875285,-0.564735 -0.538126,0.107084 -1.021383,0.471926 -1.041827,0.847102 -0.02046,0.375177 0.307165,0.501479 0.625096,0.635329 0.317932,0.133843 0.725763,0.168766 1.180735,0 0.454974,-0.168773 1.319646,-1.12947 1.319646,-1.12947 M 29.619484,70.10088 c 0,0 0.759884,-0.59523 0.764008,-1.05888 0.0041,-0.46365 -0.3728,-0.864328 -0.833462,-1.200064 -0.460662,-0.335736 -1.337161,-0.67182 -1.875285,-0.564737 -0.538126,0.107084 -1.021383,0.471927 -1.041827,0.847105 -0.02046,0.375178 0.307165,0.501481 0.625096,0.635328 0.317932,0.133847 0.725763,0.168769 1.180735,0 0.454974,-0.168769 1.319646,-1.129472 1.319646,-1.129472 0,0 0.31621,-0.353823 0.299379,-0.566825 -0.03476,-0.439917 -0.409216,-0.84379 -0.794513,-1.05909 -0.754523,-0.42162 -1.718562,-0.201665 -2.582166,-0.238295 -1.825785,-0.07744 -5.482138,0.03971 -5.482138,0.03971 m 8.420527,25.61198 c 0,0 -0.864671,0.960697 -1.319645,1.12947 -0.454973,0.168773 -0.862803,0.13385 -1.180735,0 -0.317931,-0.133843 -0.645551,-0.260152 -0.625097,-0.635329 0.02044,-0.375176 0.503702,-0.740018 1.041828,-0.847103 0.538123,-0.107084 1.414622,0.229003 1.875284,0.564735 0.460662,0.33574 0.83761,0.736419 0.833463,1.200065 -0.0041,0.463645 -0.363049,0.889421 -0.764008,1.058876 -0.61994,0.26201 -0.886928,0.273884 -1.342872,0.35389 -1.309523,0.229787 -2.644246,0.300468 -3.972564,0.357447 -1.102484,0.04732 -3.310469,-0.01321 -3.310469,-0.01321"
     inkscape:connector-curvature="0"
     sodipodi:nodetypes="ccscccscccsscsscccssccccccscccsccccsccsccczczcccccccscsccccccccscsscccccccccaaaccccccsssaac"
     inkscape:export-xdpi="118.56437"
     inkscape:export-ydpi="118.56437" />
  <path
     id="path9370-6-7"
     style="fill:none;fill-rule:evenodd;stroke:#aa4400;stroke-width:1;stroke-linecap:butt;stroke-linejoin:miter;stroke-miterlimit:4;stroke-dasharray:none;stroke-opacity:1"
     d="m 43.287626,101.09221 c 0,0 -0.595376,-0.75969 -1.059137,-0.76382 -0.463767,-0.004 -0.864541,0.37271 -1.200358,0.83326 -0.335819,0.46055 -0.671985,1.33683 -0.564877,1.87482 0.107107,0.53799 0.47204,1.02114 0.847309,1.04158 0.375275,0.0205 0.501609,-0.3071 0.635488,-0.62495 0.133879,-0.31785 0.168806,-0.72558 0,-1.18044 -0.168812,-0.45487 -1.129753,-1.31932 -1.129753,-1.31932 m 4.840436,0.13887 c 0,0 -0.595375,-0.75969 -1.059136,-0.76382 -0.463767,-0.004 -0.86454,0.37271 -1.200359,0.83326 -0.335818,0.46055 -0.671985,1.33683 -0.564877,1.87482 0.107114,0.53799 0.472041,1.02114 0.847315,1.04158 0.375269,0.0205 0.501604,-0.3071 0.635483,-0.62495 0.133878,-0.31785 0.168811,-0.72558 0,-1.18044 -0.168812,-0.45487 -1.129748,-1.31932 -1.129748,-1.31932 m 4.840431,0.13887 c 0,0 -0.595375,-0.75969 -1.059136,-0.76382 -0.463767,-0.004 -0.864541,0.37271 -1.200359,0.83326 -0.335819,0.46055 -0.671984,1.33683 -0.564877,1.87482 0.107113,0.53799 0.472046,1.02114 0.847315,1.04158 0.375269,0.0205 0.501603,-0.3071 0.635482,-0.62495 0.133879,-0.31785 0.168812,-0.72558 0,-1.18044 -0.168811,-0.45487 -1.129747,-1.31932 -1.129747,-1.31932 m 7.209545,0.13887 c 0,0 -0.595375,-0.75969 -1.059142,-0.76382 -0.463761,-0.004 -1.060538,0.53746 -1.200359,0.83326 -0.139815,0.2958 -0.08744,1.85645 -0.08744,1.85645 0,0 0.05129,-1.35051 -0.171979,-1.81356 -0.223273,-0.46305 -0.445566,-0.872 -0.909327,-0.87615 -0.463761,-0.004 -0.86454,0.37271 -1.200359,0.83326 -0.335818,0.46055 -0.671984,1.33683 -0.564876,1.87482 0.107113,0.53799 0.472046,1.02114 0.847315,1.04158 0.375269,0.0205 0.501603,-0.3071 0.635482,-0.62495 0.133879,-0.31785 0.168811,-0.72558 0,-1.18044 -0.168806,-0.45487 -1.129748,-1.31932 -1.129748,-1.31932 m 7.209546,0.13887 c 0,0 -0.595376,-0.75969 -1.059142,-0.76382 -0.463761,-0.004 -0.864541,0.37271 -1.200359,0.83326 -0.335818,0.46055 -0.671984,1.33683 -0.564877,1.87482 0.107113,0.53799 0.472047,1.02114 0.847315,1.04158 0.37527,0.0205 0.501603,-0.3071 0.635482,-0.62495 0.133885,-0.31785 0.168812,-0.72558 0,-1.18044 -0.168812,-0.45487 -1.129748,-1.31932 -1.129748,-1.31932 m 4.840438,0.13887 c 0,0 -0.595381,-0.75969 -1.059143,-0.76382 -0.463761,-0.004 -0.864534,0.37271 -1.200359,0.83326 -0.335812,0.46055 -0.671984,1.33683 -0.56487,1.87482 0.107108,0.53799 0.47204,1.02114 0.847309,1.04158 0.375269,0.0205 0.501603,-0.3071 0.635482,-0.62495 0.133879,-0.31785 0.168812,-0.72558 0,-1.18044 -0.168806,-0.45487 -1.129748,-1.31932 -1.129748,-1.31932 m 4.840438,0.13887 c 0,0 -0.595376,-0.75969 -1.059137,-0.76382 -0.463767,-0.004 -0.864541,0.37271 -1.200364,0.83326 -0.335813,0.46055 -0.671985,1.33683 -0.564872,1.87482 0.107108,0.53799 0.472041,1.02114 0.84731,1.04158 0.375269,0.0205 0.501603,-0.3071 0.635487,-0.62495 0.133879,-0.31785 0.168807,-0.72558 0,-1.18044 -0.168811,-0.45487 -1.129747,-1.31932 -1.129747,-1.31932 m 4.840431,0.13887 c 0,0 -0.595375,-0.75969 -1.059137,-0.76382 -0.463766,-0.004 -0.864545,0.37271 -1.200359,0.83326 -0.335817,0.46055 -0.671984,1.33683 -0.564876,1.87482 0.107108,0.53799 0.47204,1.02114 0.84731,1.04158 0.375274,0.0205 0.501608,-0.3071 0.635487,-0.62495 0.133879,-0.31785 0.168806,-0.72558 0,-1.18044 -0.168812,-0.45487 -1.129748,-1.31932 -1.129748,-1.31932 m -18.850661,0.13887 c 0,0 -0.595375,-0.75969 -1.059137,-0.76382 -0.463767,-0.004 -0.86454,0.37271 -1.200359,0.83326 -0.335818,0.46055 -0.671984,1.33683 -0.564876,1.87482 0.107113,0.53799 0.472046,1.02114 0.847315,1.04158 0.375269,0.0205 0.501603,-0.3071 0.635482,-0.62495 0.133879,-0.31785 0.168812,-0.72558 0,-1.18044 -0.168812,-0.45487 -1.129748,-1.31932 -1.129748,-1.31932 0,0 -0.353912,-0.31614 -0.566962,-0.29932 -0.440028,0.0348 -0.844002,0.40912 -1.05935,0.79433 -0.421726,0.75433 -0.201714,1.71814 -0.238357,2.58153 -0.07746,1.82534 0.03974,5.4808 0.03974,5.4808 m 25.61825,-8.41847 c 0,0 0.960936,0.86446 1.129748,1.31932 0.168812,0.45486 0.133885,0.8626 0,1.18045 -0.133879,0.31785 -0.260213,0.64539 -0.635482,0.62494 -0.375269,-0.0205 -0.740202,-0.50358 -0.847309,-1.04157 -0.107114,-0.53799 0.229052,-1.41427 0.56487,-1.87482 0.335819,-0.46055 0.736598,-0.83741 1.200359,-0.83326 0.463767,0.004 0.889642,0.36296 1.059143,0.76382 0.262073,0.61978 0.273951,0.88671 0.353974,1.34254 0.229843,1.3092 0.300543,2.6436 0.357533,3.97159 0.04731,1.10222 -0.01323,3.30966 -0.01323,3.30966"
     inkscape:connector-curvature="0"
     sodipodi:nodetypes="ccscccscccsscsscccssccccccscccsccccsccsccczczcccccccscsccccccccscsscccccccccaaaccccccsssaac"
     inkscape:export-xdpi="118.56437"
     inkscape:export-ydpi="118.56437" />
  <ellipse
     style="opacity:0.97000002;fill:#00ffff;fill-opacity:1;stroke:#000000;stroke-width:1;stroke-linecap:butt;stroke-linejoin:round;stroke-miterlimit:4;stroke-dasharray:none;stroke-dashoffset:0;stroke-opacity:1"
     id="path13575-9"
     cx="151.51494"
     cy="81.240852"
     rx="15.805457"
     ry="15.801582"
     inkscape:export-xdpi="118.56437"
     inkscape:export-ydpi="118.56437" />
  <text
     xml:space="preserve"
     style="font-style:normal;font-variant:normal;font-weight:normal;font-stretch:normal;font-size:4.74530745px;line-height:3.70727158px;font-family:'Bowlby One';-inkscape-font-specification:'Bowlby One, Normal';font-variant-ligatures:normal;font-variant-caps:normal;font-variant-numeric:normal;font-feature-settings:normal;text-align:start;letter-spacing:0px;word-spacing:0px;writing-mode:lr-tb;text-anchor:start;fill:#000000;fill-opacity:1;stroke:none;stroke-width:0.26458332px;stroke-linecap:butt;stroke-linejoin:miter;stroke-opacity:1"
     x="141.08551"
     y="82.524078"
     id="text13579-1"
     transform="scale(1.0001225,0.99987751)"
     inkscape:export-xdpi="118.56437"
     inkscape:export-ydpi="118.56437"><tspan
       sodipodi:role="line"
       id="tspan13577-2"
       x="141.08551"
       y="82.524078"
       style="font-size:4.74530745px;stroke-width:0.26458332px">MOTOR</tspan></text>
  <path
     id="path9370-6-70"
     style="fill:none;fill-rule:evenodd;stroke:#aa4400;stroke-width:1;stroke-linecap:butt;stroke-linejoin:miter;stroke-miterlimit:4;stroke-dasharray:none;stroke-opacity:1"
     d="m 130.51085,72.469413 c 0,0 0.75988,-0.595233 0.764,-1.058883 0.004,-0.463651 -0.3728,-0.864328 -0.83346,-1.200065 -0.46066,-0.335736 -1.33716,-0.67182 -1.87529,-0.564736 -0.53812,0.107084 -1.02138,0.471926 -1.04182,0.847104 -0.0205,0.375179 0.30716,0.501481 0.62509,0.635328 0.31794,0.133848 0.72577,0.168769 1.18074,0 0.45498,-0.168768 1.31965,-1.129472 1.31965,-1.129472 m -0.13891,4.839253 c 0,0 0.75988,-0.595231 0.764,-1.058884 0.004,-0.463653 -0.3728,-0.864325 -0.83346,-1.200064 -0.46066,-0.335732 -1.33716,-0.67182 -1.87529,-0.564735 -0.53812,0.107084 -1.02138,0.471926 -1.04182,0.847102 -0.0205,0.375177 0.30716,0.501479 0.62509,0.635329 0.31794,0.13385 0.72577,0.168766 1.18074,0 0.45498,-0.168766 1.31965,-1.12947 1.31965,-1.12947 m -0.13891,4.839251 c 0,0 0.75988,-0.595232 0.764,-1.058884 0.004,-0.463653 -0.3728,-0.864325 -0.83346,-1.200064 -0.46066,-0.335739 -1.33716,-0.67182 -1.87529,-0.564735 -0.53812,0.107084 -1.02138,0.471926 -1.04182,0.847102 -0.0205,0.375177 0.30716,0.501479 0.62509,0.635329 0.31794,0.13385 0.72577,0.168766 1.18074,0 0.45498,-0.168766 1.31965,-1.12947 1.31965,-1.12947 m -0.13891,7.207779 c 0,0 0.75988,-0.595231 0.764,-1.058883 0.004,-0.463653 -0.53759,-1.060285 -0.83346,-1.200064 -0.29588,-0.139787 -8.85335,0.04974 -8.85335,0.04974 0,0 8.34728,-0.08585 8.81045,-0.309095 0.46316,-0.223219 0.87222,-0.445451 0.87636,-0.909104 0.004,-0.463653 -0.3728,-0.864325 -0.83346,-1.200064 -0.46066,-0.335739 -1.33716,-0.671819 -1.87529,-0.564735 -0.53812,0.107084 -1.02138,0.471926 -1.04182,0.847103 -0.0205,0.375176 0.30716,0.501478 0.62509,0.635329 0.31794,0.13385 0.72577,0.168765 1.18074,0 0.45498,-0.168766 1.31965,-1.129471 1.31965,-1.129471 m -0.13891,7.207773 c 0,0 0.75988,-0.595224 0.764,-1.058877 0.004,-0.463653 -0.3728,-0.864325 -0.83346,-1.200064 -0.46066,-0.335732 -1.33716,-0.67182 -1.87529,-0.564735 -0.53812,0.107077 -1.02138,0.471926 -1.04182,0.847102 -0.0205,0.375184 0.30716,0.501487 0.62509,0.635329 0.31794,0.13385 0.72577,0.168774 1.18074,0 0.45498,-0.168766 1.31965,-1.12947 1.31965,-1.12947 m -0.13891,4.839248 c 0,0 0.75988,-0.595231 0.764,-1.058884 0.004,-0.463653 -0.3728,-0.864325 -0.83346,-1.20006 -0.46066,-0.335732 -1.33716,-0.671821 -1.87529,-0.564729 -0.53812,0.107077 -1.02138,0.47192 -1.04182,0.847092 -0.0205,0.375177 0.30716,0.501487 0.62509,0.635329 0.31794,0.133843 0.72577,0.168774 1.18074,0 0.45498,-0.168773 1.31965,-1.129467 1.31965,-1.129467 m -0.13891,4.839248 c 0,0 0.75986,-0.595239 0.764,-1.058884 0.004,-0.463653 -0.3728,-0.864325 -0.83346,-1.200064 -0.46066,-0.335739 -1.33716,-0.67182 -1.87529,-0.564735 -0.53812,0.107084 -1.02138,0.471919 -1.04182,0.847102 -0.0205,0.375177 0.30716,0.501479 0.62509,0.635329 0.31794,0.133843 0.72577,0.168773 1.18074,0 0.45498,-0.168773 1.31965,-1.12947 1.31965,-1.12947 m -0.13891,4.839251 c 0,0 0.75988,-0.595239 0.764,-1.058884 0.004,-0.463646 -0.3728,-0.864325 -0.83346,-1.200064 -0.46066,-0.33574 -1.33716,-0.67182 -1.87529,-0.564735 -0.53812,0.107084 -1.02138,0.471926 -1.04182,0.847102 -0.0205,0.375177 0.30716,0.501479 0.62509,0.635329 0.31794,0.133843 0.72577,0.168766 1.18074,0 0.45498,-0.168773 1.31965,-1.12947 1.31965,-1.12947 m -0.13891,-18.846043 c 0,0 0.75988,-0.595231 0.764,-1.058881 0.004,-0.46365 -0.3728,-0.864328 -0.83346,-1.200064 -0.46066,-0.335736 -1.33716,-0.671819 -1.87529,-0.564736 -0.53812,0.107083 -1.02138,0.471926 -1.04182,0.847104 -0.0205,0.375179 0.30716,0.501482 0.62509,0.635328 0.31794,0.133847 0.72577,0.168769 1.18074,0 0.45498,-0.168769 1.31965,-1.129472 1.31965,-1.129472 0,0 0.31621,-0.353823 0.29938,-0.566824 -0.0348,-0.439917 -0.40922,-0.843791 -0.79452,-1.059091 -0.75452,-0.42162 -1.71856,-0.201665 -2.58216,-0.238295 -1.8258,-0.07744 -5.48215,0.03971 -5.48215,0.03971 m 8.42054,25.611978 c 0,0 -0.86468,0.960697 -1.31965,1.12947 -0.45497,0.168773 -0.86281,0.13385 -1.18073,0 -0.31794,-0.133843 -0.64555,-0.260152 -0.62511,-0.635329 0.0205,-0.375176 0.50371,-0.740018 1.04183,-0.847103 0.53813,-0.107084 1.41463,0.229003 1.87529,0.564735 0.46066,0.33574 0.83761,0.736419 0.83346,1.200065 -0.004,0.463645 -0.36304,0.889421 -0.764,1.058876 -0.61995,0.26201 -0.88693,0.273884 -1.34288,0.35389 -1.30952,0.229787 -2.64425,0.300468 -3.97257,0.357447 -1.10248,0.04732 -3.31047,-0.01321 -3.31047,-0.01321"
     inkscape:connector-curvature="0"
     sodipodi:nodetypes="ccscccscccsscsscccssccccccscccsccccsccsccczczcccccccscsccccccccscsscccccccccaaaccccccsssaac"
     inkscape:export-xdpi="118.56437"
     inkscape:export-ydpi="118.56437" />
  <path
     id="path9370-6-7-9"
     style="fill:none;fill-rule:evenodd;stroke:#aa4400;stroke-width:1;stroke-linecap:butt;stroke-linejoin:miter;stroke-miterlimit:4;stroke-dasharray:none;stroke-opacity:1"
     d="m 144.17899,101.09221 c 0,0 -0.59537,-0.75969 -1.05913,-0.76382 -0.46377,-0.004 -0.86454,0.37271 -1.20035,0.83326 -0.33582,0.46055 -0.67199,1.33683 -0.56489,1.87482 0.10712,0.53799 0.47204,1.02114 0.84732,1.04158 0.37527,0.0205 0.5016,-0.3071 0.63548,-0.62495 0.13388,-0.31785 0.16881,-0.72558 0,-1.18044 -0.16881,-0.45487 -1.12975,-1.31932 -1.12975,-1.31932 m 4.84044,0.13887 c 0,0 -0.59538,-0.75969 -1.05914,-0.76382 -0.46377,-0.004 -0.86454,0.37271 -1.20036,0.83326 -0.33582,0.46055 -0.67198,1.33683 -0.56487,1.87482 0.10711,0.53799 0.47204,1.02114 0.84731,1.04158 0.37527,0.0205 0.50161,-0.3071 0.63548,-0.62495 0.13389,-0.31785 0.16882,-0.72558 0,-1.18044 -0.16881,-0.45487 -1.12975,-1.31932 -1.12975,-1.31932 m 4.84044,0.13887 c 0,0 -0.59538,-0.75969 -1.05914,-0.76382 -0.46376,-0.004 -0.86454,0.37271 -1.20036,0.83326 -0.33582,0.46055 -0.67198,1.33683 -0.56487,1.87482 0.10711,0.53799 0.47204,1.02114 0.84731,1.04158 0.37527,0.0205 0.5016,-0.3071 0.63548,-0.62495 0.13388,-0.31785 0.16881,-0.72558 0,-1.18044 -0.16881,-0.45487 -1.12975,-1.31932 -1.12975,-1.31932 m 7.20955,0.13887 c 0,0 -0.59537,-0.75969 -1.05914,-0.76382 -0.46376,-0.004 -1.06054,0.53746 -1.20036,0.83326 -0.13981,0.2958 -0.0874,8.38517 -0.0874,8.38517 0,0 0.0513,-7.87923 -0.17198,-8.34228 -0.22328,-0.46305 -0.44557,-0.872 -0.90933,-0.87615 -0.46376,-0.004 -0.86454,0.37271 -1.20035,0.83326 -0.33582,0.46055 -0.67199,1.33683 -0.56489,1.87482 0.10712,0.53799 0.47205,1.02114 0.84732,1.04158 0.37527,0.0205 0.5016,-0.3071 0.63549,-0.62495 0.13387,-0.31785 0.1688,-0.72558 0,-1.18044 -0.16882,-0.45487 -1.12975,-1.31932 -1.12975,-1.31932 m 7.20955,0.13887 c 0,0 -0.59538,-0.75969 -1.05915,-0.76382 -0.46376,-0.004 -0.86454,0.37271 -1.20036,0.83326 -0.33582,0.46055 -0.67199,1.33683 -0.56487,1.87482 0.10711,0.53799 0.47204,1.02114 0.84731,1.04158 0.37527,0.0205 0.5016,-0.3071 0.63548,-0.62495 0.13389,-0.31785 0.16882,-0.72558 0,-1.18044 -0.16881,-0.45487 -1.12975,-1.31932 -1.12975,-1.31932 m 4.84045,0.13887 c 0,0 -0.59539,-0.75969 -1.05915,-0.76382 -0.46376,-0.004 -0.86453,0.37271 -1.20036,0.83326 -0.33581,0.46055 -0.67198,1.33683 -0.56487,1.87482 0.10711,0.53799 0.47204,1.02114 0.84731,1.04158 0.37527,0.0205 0.5016,-0.3071 0.63549,-0.62495 0.13387,-0.31785 0.1688,-0.72558 0,-1.18044 -0.16881,-0.45487 -1.12975,-1.31932 -1.12975,-1.31932 m 4.84043,0.13887 c 0,0 -0.59537,-0.75969 -1.05913,-0.76382 -0.46377,-0.004 -0.86454,0.37271 -1.20037,0.83326 -0.33581,0.46055 -0.67198,1.33683 -0.56487,1.87482 0.10711,0.53799 0.47204,1.02114 0.84731,1.04158 0.37527,0.0205 0.5016,-0.3071 0.63549,-0.62495 0.13387,-0.31785 0.1688,-0.72558 0,-1.18044 -0.16882,-0.45487 -1.12975,-1.31932 -1.12975,-1.31932 m 4.84043,0.13887 c 0,0 -0.59537,-0.75969 -1.05913,-0.76382 -0.46377,-0.004 -0.86455,0.37271 -1.20036,0.83326 -0.33582,0.46055 -0.67199,1.33683 -0.56488,1.87482 0.10711,0.53799 0.47205,1.02114 0.84731,1.04158 0.37528,0.0205 0.50161,-0.3071 0.63549,-0.62495 0.13388,-0.31785 0.16881,-0.72558 0,-1.18044 -0.16881,-0.45487 -1.12975,-1.31932 -1.12975,-1.31932 m -18.85067,0.13887 c 0,0 -0.59538,-0.75969 -1.05914,-0.76382 -0.46377,-0.004 -0.86454,0.37271 -1.20036,0.83326 -0.33582,0.46055 -0.67198,1.33683 -0.56488,1.87482 0.10712,0.53799 0.47205,1.02114 0.84732,1.04158 0.37527,0.0205 0.5016,-0.3071 0.63548,-0.62495 0.13388,-0.31785 0.16881,-0.72558 0,-1.18044 -0.16881,-0.45487 -1.12975,-1.31932 -1.12975,-1.31932 0,0 -0.35391,-0.31614 -0.56696,-0.29932 -0.44002,0.0348 -0.844,0.40912 -1.05935,0.79433 -0.42172,0.75433 -0.20171,1.71814 -0.23835,2.58153 -0.0775,1.82534 0.0397,5.4808 0.0397,5.4808 m 25.61826,-8.41847 c 0,0 0.96094,0.86446 1.12975,1.31932 0.16882,0.45486 0.13389,0.8626 0,1.18045 -0.13387,0.31785 -0.26021,0.64539 -0.63548,0.62494 -0.37527,-0.0205 -0.7402,-0.50358 -0.84731,-1.04157 -0.10712,-0.53799 0.22905,-1.41427 0.56487,-1.87482 0.33582,-0.46055 0.7366,-0.83741 1.20036,-0.83326 0.46377,0.004 0.88964,0.36296 1.05915,0.76382 0.26207,0.61978 0.27395,0.88671 0.35397,1.34254 0.22984,1.3092 0.30054,2.6436 0.35753,3.97159 0.0473,1.10222 -0.0132,3.30966 -0.0132,3.30966"
     inkscape:connector-curvature="0"
     sodipodi:nodetypes="ccscccscccsscsscccssccccccscccsccccsccsccczczcccccccscsccccccccscsscccccccccaaaccccccsssaac"
     inkscape:export-xdpi="118.56437"
     inkscape:export-ydpi="118.56437" />
  <ellipse
     style="opacity:0.97000002;fill:#00ffff;fill-opacity:1;stroke:#000000;stroke-width:1;stroke-linecap:butt;stroke-linejoin:round;stroke-miterlimit:4;stroke-dasharray:none;stroke-dashoffset:0;stroke-opacity:1"
     id="path13575-3"
     cx="252.40637"
     cy="81.240852"
     rx="15.805457"
     ry="15.801582"
     inkscape:export-xdpi="118.56437"
     inkscape:export-ydpi="118.56437" />
  <text
     xml:space="preserve"
     style="font-style:normal;font-variant:normal;font-weight:normal;font-stretch:normal;font-size:4.74530745px;line-height:3.70727158px;font-family:'Bowlby One';-inkscape-font-specification:'Bowlby One, Normal';font-variant-ligatures:normal;font-variant-caps:normal;font-variant-numeric:normal;font-feature-settings:normal;text-align:start;letter-spacing:0px;word-spacing:0px;writing-mode:lr-tb;text-anchor:start;fill:#000000;fill-opacity:1;stroke:none;stroke-width:0.26458332px;stroke-linecap:butt;stroke-linejoin:miter;stroke-opacity:1"
     x="241.96439"
     y="82.524078"
     id="text13579-6"
     transform="scale(1.0001225,0.99987751)"
     inkscape:export-xdpi="118.56437"
     inkscape:export-ydpi="118.56437"><tspan
       sodipodi:role="line"
       id="tspan13577-0"
       x="241.96439"
       y="82.524078"
       style="font-size:4.74530745px;stroke-width:0.26458332px">MOTOR</tspan></text>
  <text
     xml:space="preserve"
     style="font-style:normal;font-variant:normal;font-weight:bold;font-stretch:normal;font-size:5.63318253px;line-height:4.80100775px;font-family:sans-serif;-inkscape-font-specification:'sans-serif Bold';font-variant-ligatures:normal;font-variant-caps:normal;font-variant-numeric:normal;font-feature-settings:normal;text-align:start;letter-spacing:0px;word-spacing:0px;writing-mode:lr-tb;text-anchor:start;fill:#000000;fill-opacity:1;stroke:none;stroke-width:0.26458332px;stroke-linecap:butt;stroke-linejoin:miter;stroke-opacity:1"
     x="27.668812"
     y="53.123402"
     id="text4595"
     transform="scale(1.0000986,0.99990139)"
     inkscape:export-xdpi="118.56437"
     inkscape:export-ydpi="118.56437"><tspan
       sodipodi:role="line"
       id="tspan4593"
       x="27.668812"
       y="53.123402"
       style="font-style:normal;font-variant:normal;font-weight:bold;font-stretch:normal;font-size:5.63318253px;font-family:sans-serif;-inkscape-font-specification:'sans-serif Bold';stroke-width:0.26458332px">Motor bipolar</tspan></text>
  <text
     xml:space="preserve"
     style="font-style:normal;font-variant:normal;font-weight:bold;font-stretch:normal;font-size:5.63318253px;line-height:4.80100775px;font-family:sans-serif;-inkscape-font-specification:'sans-serif Bold';font-variant-ligatures:normal;font-variant-caps:normal;font-variant-numeric:normal;font-feature-settings:normal;text-align:start;letter-spacing:0px;word-spacing:0px;writing-mode:lr-tb;text-anchor:start;fill:#000000;fill-opacity:1;stroke:none;stroke-width:0.26458332px;stroke-linecap:butt;stroke-linejoin:miter;stroke-opacity:1"
     x="124.64165"
     y="53.196022"
     id="text4595-7"
     transform="scale(1.0000986,0.9999014)"
     inkscape:export-xdpi="118.56437"
     inkscape:export-ydpi="118.56437"><tspan
       sodipodi:role="line"
       id="tspan4593-8"
       x="124.64165"
       y="53.196022"
       style="font-style:normal;font-variant:normal;font-weight:bold;font-stretch:normal;font-size:5.63318253px;font-family:sans-serif;-inkscape-font-specification:'sans-serif Bold';stroke-width:0.26458332px">Motor unipolar</tspan></text>
  <text
     xml:space="preserve"
     style="font-style:normal;font-variant:normal;font-weight:bold;font-stretch:normal;font-size:5.63318253px;line-height:4.80100775px;font-family:sans-serif;-inkscape-font-specification:'sans-serif Bold';font-variant-ligatures:normal;font-variant-caps:normal;font-variant-numeric:normal;font-feature-settings:normal;text-align:center;letter-spacing:0px;word-spacing:0px;writing-mode:lr-tb;text-anchor:middle;fill:#000000;fill-opacity:1;stroke:none;stroke-width:0.26458332px;stroke-linecap:butt;stroke-linejoin:miter;stroke-opacity:1"
     x="251.54529"
     y="48.312714"
     id="text4595-7-4"
     transform="scale(1.0000986,0.9999014)"
     inkscape:export-xdpi="118.56437"
     inkscape:export-ydpi="118.56437"><tspan
       sodipodi:role="line"
       id="tspan4593-8-1"
       x="251.54529"
       y="48.312714"
       style="font-style:normal;font-variant:normal;font-weight:bold;font-stretch:normal;font-size:5.63318253px;font-family:sans-serif;-inkscape-font-specification:'sans-serif Bold';text-align:center;text-anchor:middle;stroke-width:0.26458332px">Motor unipolar</tspan><tspan
       sodipodi:role="line"
       x="251.54529"
       y="53.11372"
       style="font-style:normal;font-variant:normal;font-weight:bold;font-stretch:normal;font-size:5.63318253px;font-family:sans-serif;-inkscape-font-specification:'sans-serif Bold';text-align:center;text-anchor:middle;stroke-width:0.26458332px"
       id="tspan4633">com o fio comum</tspan><tspan
       sodipodi:role="line"
       x="251.54529"
       y="57.91473"
       style="font-style:normal;font-variant:normal;font-weight:bold;font-stretch:normal;font-size:5.63318253px;font-family:sans-serif;-inkscape-font-specification:'sans-serif Bold';text-align:center;text-anchor:middle;stroke-width:0.26458332px"
       id="tspan4635">ligado</tspan></text>
  <path
     id="path4637"
     style="fill:none;fill-rule:evenodd;stroke:#aa4400;stroke-width:1;stroke-linecap:butt;stroke-linejoin:miter;stroke-miterlimit:4;stroke-dasharray:none;stroke-opacity:1"
     d="m 245.07039,101.09221 c 0,0 -0.59537,-0.75969 -1.05914,-0.76382 -0.46376,-0.004 -0.86454,0.37271 -1.20035,0.83326 -0.33582,0.46055 -0.67199,1.33683 -0.56488,1.87482 0.10711,0.53799 0.47204,1.02114 0.84731,1.04158 0.37527,0.0205 0.50161,-0.3071 0.63548,-0.62495 0.13389,-0.31785 0.16881,-0.72558 0,-1.18044 -0.1688,-0.45487 -1.12975,-1.31932 -1.12975,-1.31932 m 4.84044,0.13887 c 0,0 -0.59538,-0.75969 -1.05914,-0.76382 -0.46376,-0.004 -0.86454,0.37271 -1.20036,0.83326 -0.33582,0.46055 -0.67198,1.33683 -0.56487,1.87482 0.10711,0.53799 0.47204,1.02114 0.84731,1.04158 0.37527,0.0205 0.50161,-0.3071 0.63549,-0.62495 0.13388,-0.31785 0.16881,-0.72558 0,-1.18044 -0.16882,-0.45487 -1.12976,-1.31932 -1.12976,-1.31932 m 4.84044,0.13887 c 0,0 -0.59538,-0.75969 -1.05913,-0.76382 -0.46377,-0.004 -0.86455,0.37271 -1.20036,0.83326 -0.33582,0.46055 -0.67199,1.33683 -0.56488,1.87482 0.10711,0.53799 0.47204,1.02114 0.84731,1.04158 0.37527,0.0205 0.5016,-0.3071 0.63549,-0.62495 0.13387,-0.31785 0.1688,-0.72558 0,-1.18044 -0.16882,-0.45487 -1.12975,-1.31932 -1.12975,-1.31932 m 7.20955,0.13887 c 0,0 -0.59537,-0.75969 -1.05915,-0.76382 -0.46376,-0.004 -1.06053,0.53746 -1.20036,0.83326 -0.13981,0.2958 -0.0874,8.38517 -0.0874,8.38517 m 0,0 c 0,0 0.0513,-7.87923 -0.17198,-8.34228 -0.22327,-0.46305 -0.44556,-0.872 -0.90932,-0.87615 -0.46377,-0.004 -0.86455,0.37271 -1.20036,0.83326 -0.33582,0.46055 -0.67199,1.33683 -0.56488,1.87482 0.10711,0.53799 0.47204,1.02114 0.84732,1.04158 0.37526,0.0205 0.5016,-0.3071 0.63548,-0.62495 0.13388,-0.31785 0.16881,-0.72558 0,-1.18044 -0.16881,-0.45487 -1.12975,-1.31932 -1.12975,-1.31932 m 7.20955,0.13887 c 0,0 -0.59538,-0.75969 -1.05914,-0.76382 -0.46376,-0.004 -0.86454,0.37271 -1.20036,0.83326 -0.33582,0.46055 -0.67199,1.33683 -0.56488,1.87482 0.10711,0.53799 0.47204,1.02114 0.84731,1.04158 0.37528,0.0205 0.5016,-0.3071 0.63549,-0.62495 0.13388,-0.31785 0.16881,-0.72558 0,-1.18044 -0.16882,-0.45487 -1.12975,-1.31932 -1.12975,-1.31932 m 4.84044,0.13887 c 0,0 -0.59538,-0.75969 -1.05914,-0.76382 -0.46377,-0.004 -0.86454,0.37271 -1.20037,0.83326 -0.33581,0.46055 -0.67198,1.33683 -0.56487,1.87482 0.10711,0.53799 0.47204,1.02114 0.84732,1.04158 0.37526,0.0205 0.5016,-0.3071 0.63548,-0.62495 0.13388,-0.31785 0.16881,-0.72558 0,-1.18044 -0.16881,-0.45487 -1.12975,-1.31932 -1.12975,-1.31932 m 4.84044,0.13887 c 0,0 -0.59537,-0.75969 -1.05914,-0.76382 -0.46377,-0.004 -0.86454,0.37271 -1.20037,0.83326 -0.33581,0.46055 -0.67198,1.33683 -0.56486,1.87482 0.1071,0.53799 0.47204,1.02114 0.8473,1.04158 0.37527,0.0205 0.50161,-0.3071 0.63549,-0.62495 0.13388,-0.31785 0.16881,-0.72558 0,-1.18044 -0.16881,-0.45487 -1.12975,-1.31932 -1.12975,-1.31932 m 4.84044,0.13887 c 0,0 -0.59538,-0.75969 -1.05914,-0.76382 -0.46376,-0.004 -0.86454,0.37271 -1.20036,0.83326 -0.33582,0.46055 -0.67199,1.33683 -0.56487,1.87482 0.1071,0.53799 0.47204,1.02114 0.8473,1.04158 0.37528,0.0205 0.50161,-0.3071 0.63549,-0.62495 0.13388,-0.31785 0.16881,-0.72558 0,-1.18044 -0.16881,-0.45487 -1.12975,-1.31932 -1.12975,-1.31932 m -18.85067,0.13887 c 0,0 -0.59537,-0.75969 -1.05913,-0.76382 -0.46378,-0.004 -0.86455,0.37271 -1.20036,0.83326 -0.33582,0.46055 -0.67199,1.33683 -0.56489,1.87482 0.10712,0.53799 0.47205,1.02114 0.84733,1.04158 0.37526,0.0205 0.50159,-0.3071 0.63548,-0.62495 0.13388,-0.31785 0.16881,-0.72558 0,-1.18044 -0.16882,-0.45487 -1.12975,-1.31932 -1.12975,-1.31932 0,0 -0.35391,-0.31614 -0.56696,-0.29932 -0.44003,0.0348 -0.844,0.40912 -1.05936,0.79433 -0.42172,0.75433 -0.20171,1.71814 -0.23835,2.58153 -0.0775,1.82534 0.0397,5.4808 0.0397,5.4808 m 25.61826,-8.41847 c 0,0 0.96093,0.86446 1.12975,1.31932 0.16881,0.45486 0.13388,0.8626 0,1.18045 -0.13388,0.31785 -0.26021,0.64539 -0.63549,0.62494 -0.37527,-0.0205 -0.7402,-0.50358 -0.8473,-1.04157 -0.10712,-0.53799 0.22905,-1.41427 0.56487,-1.87482 0.33582,-0.46055 0.7366,-0.83741 1.20036,-0.83326 0.46376,0.004 0.88964,0.36296 1.05914,0.76382 0.26208,0.61978 0.27395,0.88671 0.35397,1.34254 0.22984,1.3092 0.30055,2.6436 0.35754,3.97159 0.0473,1.10222 -0.0132,3.30966 -0.0132,3.30966 M 231.40225,72.469413 c 0,0 0.75988,-0.595233 0.764,-1.058883 0.004,-0.463651 -0.3728,-0.864328 -0.83346,-1.200065 -0.46066,-0.335736 -1.33716,-0.67182 -1.87529,-0.564736 -0.53813,0.107084 -1.02138,0.471926 -1.04183,0.847104 -0.0205,0.375179 0.30717,0.501481 0.6251,0.635328 0.31793,0.133848 0.72576,0.168769 1.18074,0 0.45497,-0.168768 1.31964,-1.129472 1.31964,-1.129472 m -0.1389,4.839253 c 0,0 0.75988,-0.595231 0.764,-1.058884 0.004,-0.463653 -0.3728,-0.864325 -0.83346,-1.200064 -0.46066,-0.335732 -1.33716,-0.67182 -1.87529,-0.564735 -0.53813,0.107084 -1.02138,0.471926 -1.04183,0.847102 -0.0205,0.375177 0.30717,0.501479 0.6251,0.635329 0.31793,0.13385 0.72576,0.168766 1.18074,0 0.45497,-0.168766 1.31964,-1.12947 1.31964,-1.12947 m -0.1389,4.839251 c 0,0 0.75988,-0.595232 0.764,-1.058884 0.004,-0.463653 -0.3728,-0.864325 -0.83346,-1.200064 -0.46066,-0.335739 -1.33716,-0.67182 -1.87529,-0.564735 -0.53813,0.107084 -1.02138,0.471926 -1.04183,0.847102 -0.0205,0.375177 0.30717,0.501479 0.6251,0.635329 0.31793,0.13385 0.72576,0.168766 1.18074,0 0.45497,-0.168766 1.31964,-1.12947 1.31964,-1.12947 m -0.1389,7.207779 c 0,0 0.75988,-0.595231 0.764,-1.058883 0.004,-0.463653 -0.53759,-1.060285 -0.83346,-1.200064 -0.29588,-0.139787 -8.55315,-0.154237 -8.55315,-0.154237 0,0 8.04708,0.118127 8.51025,-0.105121 0.46316,-0.223219 0.87221,-0.445451 0.87636,-0.909103 0.004,-0.463653 -0.3728,-0.864325 -0.83346,-1.200064 -0.46066,-0.33574 -1.33716,-0.67182 -1.87529,-0.564735 -0.53813,0.107084 -1.02138,0.471926 -1.04183,0.847102 -0.0205,0.375177 0.30717,0.501479 0.6251,0.635329 0.31793,0.13385 0.72576,0.168766 1.18074,0 0.45497,-0.168766 1.31964,-1.12947 1.31964,-1.12947 m -0.1389,7.207773 c 0,0 0.75988,-0.595225 0.764,-1.058878 0.004,-0.463652 -0.3728,-0.864324 -0.83346,-1.200064 -0.46066,-0.335732 -1.33716,-0.671819 -1.87529,-0.564735 -0.53813,0.107077 -1.02138,0.471927 -1.04183,0.847103 -0.0205,0.375184 0.30717,0.501486 0.6251,0.635329 0.31793,0.13385 0.72576,0.168773 1.18074,0 0.45497,-0.168766 1.31964,-1.12947 1.31964,-1.12947 m -0.1389,4.839249 c 0,0 0.75988,-0.595231 0.764,-1.058884 0.004,-0.463653 -0.3728,-0.864325 -0.83346,-1.200061 -0.46066,-0.335733 -1.33716,-0.671821 -1.87529,-0.56473 -0.53813,0.107078 -1.02138,0.47192 -1.04183,0.847094 -0.0205,0.375177 0.30717,0.501487 0.6251,0.635329 0.31793,0.133843 0.72576,0.168774 1.18074,0 0.45497,-0.168773 1.31964,-1.129469 1.31964,-1.129469 m -0.1389,4.83925 c 0,0 0.75986,-0.595239 0.764,-1.058884 0.004,-0.463653 -0.3728,-0.864325 -0.83346,-1.200064 -0.46066,-0.335739 -1.33716,-0.67182 -1.87529,-0.564735 -0.53813,0.107084 -1.02138,0.471919 -1.04183,0.847102 -0.0205,0.375177 0.30717,0.501479 0.6251,0.635329 0.31793,0.133843 0.72576,0.168773 1.18074,0 0.45497,-0.168773 1.31964,-1.12947 1.31964,-1.12947 m -0.1389,4.839251 c 0,0 0.75988,-0.595239 0.764,-1.058884 0.004,-0.463646 -0.3728,-0.864325 -0.83346,-1.200064 -0.46066,-0.33574 -1.33716,-0.67182 -1.87529,-0.564735 -0.53813,0.107084 -1.02138,0.471926 -1.04183,0.847102 -0.0205,0.375177 0.30717,0.501479 0.6251,0.635329 0.31793,0.133843 0.72576,0.168766 1.18074,0 0.45497,-0.168773 1.31964,-1.12947 1.31964,-1.12947 m -0.1389,-18.84604 c 0,0 0.75988,-0.59523 0.764,-1.05888 0.004,-0.46365 -0.3728,-0.864329 -0.83346,-1.200064 -0.46066,-0.335737 -1.33716,-0.67182 -1.87529,-0.564737 -0.53813,0.107084 -1.02138,0.471926 -1.04183,0.847104 -0.0205,0.375179 0.30717,0.501482 0.6251,0.635329 0.31793,0.133847 0.72576,0.168768 1.18074,0 0.45497,-0.168769 1.31964,-1.129472 1.31964,-1.129472 0,0 0.31622,-0.353824 0.29938,-0.566825 -0.0348,-0.439917 -0.40921,-0.84379 -0.79451,-1.059091 -0.75452,-0.421619 -1.71857,-0.201664 -2.58217,-0.238294 -1.82579,-0.07744 -5.48214,0.03971 -5.48214,0.03971 m 8.42054,25.611979 c 0,0 -0.86468,0.960697 -1.31966,1.12947 -0.45496,0.168773 -0.8628,0.13385 -1.18073,0 -0.31793,-0.133843 -0.64555,-0.260152 -0.6251,-0.635329 0.0205,-0.375176 0.50371,-0.740018 1.04183,-0.847103 0.53813,-0.107084 1.41462,0.229003 1.87529,0.564735 0.46066,0.33574 0.83761,0.736419 0.83346,1.200065 -0.004,0.463645 -0.36305,0.889421 -0.76401,1.058876 -0.61994,0.26201 -0.88692,0.273884 -1.34287,0.35389 -1.30953,0.229787 -2.64425,0.300468 -3.97257,0.357447 -1.10248,0.04732 -3.31047,-0.01321 -3.31047,-0.01321"
     inkscape:connector-curvature="0"
     sodipodi:nodetypes="cccccccccccscccscccsccccscccccccccccccccccccsscsscccccccscccccccccccccccccccccccccccccccccccccccccccscssccccscssccccscssccccccccscssccccccccccccccssccccsccsccccsccccccccccsccsscccccsc"
     inkscape:export-xdpi="118.56437"
     inkscape:export-ydpi="118.56437" />
  <path
     style="fill:none;fill-rule:evenodd;stroke:#ff0000;stroke-width:1;stroke-linecap:butt;stroke-linejoin:miter;stroke-opacity:1;stroke-miterlimit:4;stroke-dasharray:none"
     d="M 21.198957,65.80566 H 5.6126602"
     id="path4641"
     inkscape:connector-curvature="0"
     inkscape:export-xdpi="118.56437"
     inkscape:export-ydpi="118.56437" />
  <path
     style="fill:none;fill-rule:evenodd;stroke:#ffc805;stroke-width:1;stroke-linecap:butt;stroke-linejoin:miter;stroke-opacity:1;stroke-miterlimit:4;stroke-dasharray:none"
     d="M 20.854669,94.586479 H 5.8799295"
     id="path4643"
     inkscape:connector-curvature="0"
     inkscape:export-xdpi="118.56437"
     inkscape:export-ydpi="118.56437" />
  <path
     style="fill:none;fill-rule:evenodd;stroke:#ff0000;stroke-width:1;stroke-linecap:butt;stroke-linejoin:miter;stroke-opacity:1;stroke-miterlimit:4;stroke-dasharray:none"
     d="M 122.09031,65.80566 H 107.17508"
     id="path4645"
     inkscape:connector-curvature="0"
     inkscape:export-xdpi="118.56437"
     inkscape:export-ydpi="118.56437" />
  <path
     style="fill:none;fill-rule:evenodd;stroke:#000000;stroke-width:1;stroke-linecap:butt;stroke-linejoin:miter;stroke-opacity:1;stroke-miterlimit:4;stroke-dasharray:none"
     d="M 121.58804,79.734319 H 106.37327"
     id="path4647"
     inkscape:connector-curvature="0"
     inkscape:export-xdpi="118.56437"
     inkscape:export-ydpi="118.56437" />
  <path
     style="fill:none;fill-rule:evenodd;stroke:#ff0000;stroke-width:1.00000003;stroke-linecap:butt;stroke-linejoin:miter;stroke-opacity:1;stroke-miterlimit:4;stroke-dasharray:1.00000003,1.00000003;stroke-dashoffset:0"
     d="M 121.74602,94.586479 H 106.37327"
     id="path4649"
     inkscape:connector-curvature="0"
     inkscape:export-xdpi="118.56437"
     inkscape:export-ydpi="118.56437" />
  <path
     style="fill:none;fill-rule:evenodd;stroke:#000000;stroke-width:1;stroke-linecap:butt;stroke-linejoin:miter;stroke-opacity:1;stroke-miterlimit:4;stroke-dasharray:none"
     d="m 222.77964,79.530344 h -7.02631 v 36.724866 l 36.41547,0.13364 0.0311,-6.84203 v 0 0"
     id="path4737"
     inkscape:connector-curvature="0"
     inkscape:export-xdpi="118.56437"
     inkscape:export-ydpi="118.56437" />
  <path
     style="fill:#ffffff;fill-rule:evenodd;stroke:#008000;stroke-width:1;stroke-linecap:butt;stroke-linejoin:miter;stroke-opacity:1;fill-opacity:1;stroke-miterlimit:4;stroke-dasharray:1, 1;stroke-dashoffset:0"
     d="m 166.30154,109.85488 v 13.02161 h 0.008"
     id="path4739"
     inkscape:connector-curvature="0"
     inkscape:export-xdpi="118.56437"
     inkscape:export-ydpi="118.56437" />
  <path
     style="fill:none;fill-rule:evenodd;stroke:#008000;stroke-width:1;stroke-linecap:butt;stroke-linejoin:miter;stroke-opacity:1;stroke-miterlimit:4;stroke-dasharray:none"
     d="m 137.51364,109.51068 v 12.42086"
     id="path4743"
     inkscape:connector-curvature="0"
     inkscape:export-xdpi="118.56437"
     inkscape:export-ydpi="118.56437" />
  <path
     style="fill:none;fill-rule:evenodd;stroke:#808080;stroke-width:1;stroke-linecap:butt;stroke-linejoin:miter;stroke-opacity:1;stroke-miterlimit:4;stroke-dasharray:none"
     d="M 36.622267,109.51068 V 120.9866"
     id="path4745"
     inkscape:connector-curvature="0"
     inkscape:export-xdpi="118.56437"
     inkscape:export-ydpi="118.56437" />
  <path
     style="fill:none;fill-rule:evenodd;stroke:#0000ff;stroke-width:1;stroke-linecap:butt;stroke-linejoin:miter;stroke-opacity:1;stroke-miterlimit:4;stroke-dasharray:none"
     d="m 65.410124,109.85488 v 12.26565"
     id="path4747"
     inkscape:connector-curvature="0"
     inkscape:export-xdpi="118.56437"
     inkscape:export-ydpi="118.56437" />
  <path
     style="color:#000000;font-style:normal;font-variant:normal;font-weight:normal;font-stretch:normal;font-size:medium;line-height:normal;font-family:sans-serif;font-variant-ligatures:normal;font-variant-position:normal;font-variant-caps:normal;font-variant-numeric:normal;font-variant-alternates:normal;font-feature-settings:normal;text-indent:0;text-align:start;text-decoration:none;text-decoration-line:none;text-decoration-style:solid;text-decoration-color:#000000;letter-spacing:normal;word-spacing:normal;text-transform:none;writing-mode:lr-tb;direction:ltr;text-orientation:mixed;dominant-baseline:auto;baseline-shift:baseline;text-anchor:start;white-space:normal;shape-padding:0;clip-rule:nonzero;display:inline;overflow:visible;visibility:visible;opacity:1;isolation:auto;mix-blend-mode:normal;color-interpolation:sRGB;color-interpolation-filters:linearRGB;solid-color:#000000;solid-opacity:1;vector-effect:none;fill:#ffffff;fill-opacity:1;fill-rule:evenodd;stroke:#000000;stroke-width:0.2;stroke-linecap:butt;stroke-linejoin:miter;stroke-miterlimit:4;stroke-dasharray:none;stroke-dashoffset:0;stroke-opacity:1;color-rendering:auto;image-rendering:auto;shape-rendering:auto;text-rendering:auto;enable-background:accumulate"
     d="m 150.70898,109.54688 v 12.57421 m 1.19922,0 v -12.57421"
     id="path4751"
     inkscape:connector-curvature="0"
     sodipodi:nodetypes="cccc"
     inkscape:export-xdpi="118.56437"
     inkscape:export-ydpi="118.56437" />
  <path
     style="fill:none;fill-rule:evenodd;stroke:#ff0000;stroke-width:1;stroke-linecap:butt;stroke-linejoin:miter;stroke-opacity:1;stroke-miterlimit:4;stroke-dasharray:none"
     d="m 222.98171,65.805663 h -19.25255 l -0.37797,-0.192569"
     id="path4755"
     inkscape:connector-curvature="0"
     inkscape:export-xdpi="118.56437"
     inkscape:export-ydpi="118.56437" />
  <path
     style="fill:none;fill-rule:evenodd;stroke:#ff0000;stroke-width:1.00000003;stroke-linecap:butt;stroke-linejoin:miter;stroke-opacity:1;stroke-miterlimit:4;stroke-dasharray:1.00000003,1.00000003;stroke-dashoffset:0"
     d="M 222.63742,94.586485 H 203.1622"
     id="path4757"
     inkscape:connector-curvature="0"
     inkscape:export-xdpi="118.56437"
     inkscape:export-ydpi="118.56437" />
  <path
     style="fill:none;fill-rule:evenodd;stroke:#008000;stroke-width:1;stroke-linecap:butt;stroke-linejoin:miter;stroke-opacity:1;stroke-miterlimit:4;stroke-dasharray:none"
     d="m 238.40503,109.51068 v 18.09051"
     id="path4759"
     inkscape:connector-curvature="0"
     inkscape:export-xdpi="118.56437"
     inkscape:export-ydpi="118.56437" />
  <path
     style="fill:none;fill-rule:evenodd;stroke:#008000;stroke-width:1.00000003;stroke-linecap:butt;stroke-linejoin:miter;stroke-opacity:1;stroke-miterlimit:4;stroke-dasharray:1.00000003,1.00000003;stroke-dashoffset:0"
     d="m 267.19292,109.85488 v 18.31327"
     id="path4761"
     inkscape:connector-curvature="0"
     inkscape:export-xdpi="118.56437"
     inkscape:export-ydpi="118.56437" />
  <text
     xml:space="preserve"
     style="font-style:normal;font-variant:normal;font-weight:normal;font-stretch:normal;font-size:3.52777767px;line-height:6.61458302px;font-family:sans-serif;-inkscape-font-specification:sans-serif;font-variant-ligatures:normal;font-variant-caps:normal;font-variant-numeric:normal;font-feature-settings:normal;text-align:start;letter-spacing:0px;word-spacing:0px;writing-mode:lr-tb;text-anchor:start;fill:#000000;fill-opacity:1;stroke:none;stroke-width:0.26458332px;stroke-linecap:butt;stroke-linejoin:miter;stroke-opacity:1"
     x="3.7417734"
     y="64.338104"
     id="text4765"
     inkscape:export-xdpi="118.56437"
     inkscape:export-ydpi="118.56437"><tspan
       sodipodi:role="line"
       id="tspan4763"
       x="3.7417734"
       y="64.338104"
       style="font-style:normal;font-variant:normal;font-weight:normal;font-stretch:normal;font-size:3.52777767px;font-family:sans-serif;-inkscape-font-specification:sans-serif;stroke-width:0.26458332px">vermelho</tspan></text>
  <text
     xml:space="preserve"
     style="font-style:normal;font-variant:normal;font-weight:normal;font-stretch:normal;font-size:3.52777767px;line-height:6.61458349px;font-family:sans-serif;-inkscape-font-specification:sans-serif;font-variant-ligatures:normal;font-variant-caps:normal;font-variant-numeric:normal;font-feature-settings:normal;text-align:start;letter-spacing:0px;word-spacing:0px;writing-mode:lr-tb;text-anchor:start;fill:#000000;fill-opacity:1;stroke:none;stroke-width:0.26458332px;stroke-linecap:butt;stroke-linejoin:miter;stroke-opacity:1"
     x="4.8120656"
     y="92.491043"
     id="text4765-2"
     inkscape:export-xdpi="118.56437"
     inkscape:export-ydpi="118.56437"><tspan
       sodipodi:role="line"
       id="tspan4763-1"
       x="4.8120656"
       y="92.491043"
       style="font-style:normal;font-variant:normal;font-weight:normal;font-stretch:normal;font-size:3.52777767px;font-family:sans-serif;-inkscape-font-specification:sans-serif;stroke-width:0.26458332px">amarelo</tspan></text>
  <text
     xml:space="preserve"
     style="font-style:normal;font-variant:normal;font-weight:normal;font-stretch:normal;font-size:3.52777767px;line-height:6.61458349px;font-family:sans-serif;-inkscape-font-specification:sans-serif;font-variant-ligatures:normal;font-variant-caps:normal;font-variant-numeric:normal;font-feature-settings:normal;text-align:start;letter-spacing:0px;word-spacing:0px;writing-mode:lr-tb;text-anchor:start;fill:#000000;fill-opacity:1;stroke:none;stroke-width:0.26458332px;stroke-linecap:butt;stroke-linejoin:miter;stroke-opacity:1"
     x="104.6587"
     y="63.916008"
     id="text4765-2-9"
     inkscape:export-xdpi="118.56437"
     inkscape:export-ydpi="118.56437"><tspan
       sodipodi:role="line"
       id="tspan4763-1-6"
       x="104.6587"
       y="63.916008"
       style="font-style:normal;font-variant:normal;font-weight:normal;font-stretch:normal;font-size:3.52777767px;font-family:sans-serif;-inkscape-font-specification:sans-serif;stroke-width:0.26458332px">vermelho</tspan></text>
  <text
     xml:space="preserve"
     style="font-style:normal;font-variant:normal;font-weight:normal;font-stretch:normal;font-size:3.52777767px;line-height:6.61458349px;font-family:sans-serif;-inkscape-font-specification:sans-serif;font-variant-ligatures:normal;font-variant-caps:normal;font-variant-numeric:normal;font-feature-settings:normal;text-align:start;letter-spacing:0px;word-spacing:0px;writing-mode:lr-tb;text-anchor:start;fill:#000000;fill-opacity:1;stroke:none;stroke-width:0.26458332px;stroke-linecap:butt;stroke-linejoin:miter;stroke-opacity:1"
     x="105.56225"
     y="78.121353"
     id="text4765-2-9-4"
     inkscape:export-xdpi="118.56437"
     inkscape:export-ydpi="118.56437"><tspan
       sodipodi:role="line"
       id="tspan4763-1-6-8"
       x="105.56225"
       y="78.121353"
       style="font-style:normal;font-variant:normal;font-weight:normal;font-stretch:normal;font-size:3.52777767px;font-family:sans-serif;-inkscape-font-specification:sans-serif;stroke-width:0.26458332px">preto</tspan></text>
  <text
     xml:space="preserve"
     style="font-style:normal;font-variant:normal;font-weight:normal;font-stretch:normal;font-size:3.52777767px;line-height:2.5px;font-family:sans-serif;-inkscape-font-specification:sans-serif;font-variant-ligatures:normal;font-variant-caps:normal;font-variant-numeric:normal;font-feature-settings:normal;text-align:start;letter-spacing:0px;word-spacing:0px;writing-mode:lr-tb;text-anchor:start;fill:#000000;fill-opacity:1;stroke:none;stroke-width:0.26458332px;stroke-linecap:butt;stroke-linejoin:miter;stroke-opacity:1"
     x="104.49857"
     y="90.687737"
     id="text4765-2-9-0"
     inkscape:export-xdpi="118.56437"
     inkscape:export-ydpi="118.56437"><tspan
       sodipodi:role="line"
       x="104.49857"
       y="90.687737"
       style="font-style:normal;font-variant:normal;font-weight:normal;font-stretch:normal;font-size:3.52777767px;line-height:2.5px;font-family:sans-serif;-inkscape-font-specification:sans-serif;stroke-width:0.26458332px"
       id="tspan4929">vermelho</tspan><tspan
       sodipodi:role="line"
       x="104.49857"
       y="93.187737"
       style="font-style:normal;font-variant:normal;font-weight:normal;font-stretch:normal;font-size:3.52777767px;line-height:2.5px;font-family:sans-serif;-inkscape-font-specification:sans-serif;stroke-width:0.26458332px"
       id="tspan4933">e branco</tspan><tspan
       sodipodi:role="line"
       x="104.49857"
       y="95.687737"
       style="font-style:normal;font-variant:normal;font-weight:normal;font-stretch:normal;font-size:3.52777767px;line-height:2.5px;font-family:sans-serif;-inkscape-font-specification:sans-serif;stroke-width:0.26458332px"
       id="tspan4927" /></text>
  <text
     xml:space="preserve"
     style="font-style:normal;font-variant:normal;font-weight:normal;font-stretch:normal;font-size:3.52777767px;line-height:0px;font-family:sans-serif;-inkscape-font-specification:sans-serif;font-variant-ligatures:normal;font-variant-caps:normal;font-variant-numeric:normal;font-feature-settings:normal;text-align:start;letter-spacing:0px;word-spacing:0px;writing-mode:lr-tb;text-anchor:start;fill:#000000;fill-opacity:1;stroke:none;stroke-width:0.26458332px;stroke-linecap:butt;stroke-linejoin:miter;stroke-opacity:1"
     x="202.29395"
     y="63.833847"
     id="text4765-2-9-02"
     inkscape:export-xdpi="118.56437"
     inkscape:export-ydpi="118.56437"><tspan
       sodipodi:role="line"
       id="tspan4763-1-6-2"
       x="202.29395"
       y="63.833847"
       style="font-style:normal;font-variant:normal;font-weight:normal;font-stretch:normal;font-size:3.52777767px;line-height:0px;font-family:sans-serif;-inkscape-font-specification:sans-serif;stroke-width:0.26458332px">vermelho</tspan></text>
  <text
     xml:space="preserve"
     style="font-style:normal;font-variant:normal;font-weight:normal;font-stretch:normal;font-size:3.52777767px;line-height:6.61458349px;font-family:sans-serif;-inkscape-font-specification:sans-serif;font-variant-ligatures:normal;font-variant-caps:normal;font-variant-numeric:normal;font-feature-settings:normal;text-align:start;letter-spacing:0px;word-spacing:0px;writing-mode:lr-tb;text-anchor:start;fill:#000000;fill-opacity:1;stroke:none;stroke-width:0.26458332px;stroke-linecap:butt;stroke-linejoin:miter;stroke-opacity:1"
     x="204.75854"
     y="80.761826"
     id="text4765-2-9-9"
     inkscape:export-xdpi="118.56437"
     inkscape:export-ydpi="118.56437"><tspan
       sodipodi:role="line"
       id="tspan4763-1-6-7"
       x="204.75854"
       y="80.761826"
       style="font-style:normal;font-variant:normal;font-weight:normal;font-stretch:normal;font-size:3.52777767px;font-family:sans-serif;-inkscape-font-specification:sans-serif;stroke-width:0.26458332px">preto</tspan></text>
  <text
     xml:space="preserve"
     style="font-style:normal;font-variant:normal;font-weight:normal;font-stretch:normal;font-size:3.52777767px;line-height:6.61458349px;font-family:sans-serif;-inkscape-font-specification:sans-serif;font-variant-ligatures:normal;font-variant-caps:normal;font-variant-numeric:normal;font-feature-settings:normal;text-align:start;letter-spacing:0px;word-spacing:0px;writing-mode:lr-tb;text-anchor:start;fill:#000000;fill-opacity:1;stroke:none;stroke-width:0.26458332px;stroke-linecap:butt;stroke-linejoin:miter;stroke-opacity:1"
     x="-120.73116"
     y="34.884754"
     id="text4765-2-9-46"
     transform="rotate(-90)"
     inkscape:export-xdpi="118.56437"
     inkscape:export-ydpi="118.56437"><tspan
       sodipodi:role="line"
       id="tspan4763-1-6-3"
       x="-120.73116"
       y="34.884754"
       style="font-style:normal;font-variant:normal;font-weight:normal;font-stretch:normal;font-size:3.52777767px;font-family:sans-serif;-inkscape-font-specification:sans-serif;stroke-width:0.26458332px">cinza</tspan></text>
  <text
     xml:space="preserve"
     style="font-style:normal;font-variant:normal;font-weight:normal;font-stretch:normal;font-size:3.52777767px;line-height:6.61458349px;font-family:sans-serif;-inkscape-font-specification:sans-serif;font-variant-ligatures:normal;font-variant-caps:normal;font-variant-numeric:normal;font-feature-settings:normal;text-align:start;letter-spacing:0px;word-spacing:0px;writing-mode:lr-tb;text-anchor:start;fill:#000000;fill-opacity:1;stroke:none;stroke-width:0.26458332px;stroke-linecap:butt;stroke-linejoin:miter;stroke-opacity:1"
     x="-120.61863"
     y="63.689018"
     id="text4765-2-9-46-7"
     transform="rotate(-90)"
     inkscape:export-xdpi="118.56437"
     inkscape:export-ydpi="118.56437"><tspan
       sodipodi:role="line"
       id="tspan4763-1-6-3-4"
       x="-120.61863"
       y="63.689018"
       style="font-style:normal;font-variant:normal;font-weight:normal;font-stretch:normal;font-size:3.52777767px;font-family:sans-serif;-inkscape-font-specification:sans-serif;stroke-width:0.26458332px">azul</tspan></text>
  <text
     xml:space="preserve"
     style="font-style:normal;font-variant:normal;font-weight:normal;font-stretch:normal;font-size:3.52777767px;line-height:6.61458349px;font-family:sans-serif;-inkscape-font-specification:sans-serif;font-variant-ligatures:normal;font-variant-caps:normal;font-variant-numeric:normal;font-feature-settings:normal;text-align:start;letter-spacing:0px;word-spacing:0px;writing-mode:lr-tb;text-anchor:start;fill:#000000;fill-opacity:1;stroke:none;stroke-width:0.26458332px;stroke-linecap:butt;stroke-linejoin:miter;stroke-opacity:1"
     x="-120.49038"
     y="135.52202"
     id="text4765-2-9-46-9"
     transform="rotate(-90)"
     inkscape:export-xdpi="118.56437"
     inkscape:export-ydpi="118.56437"><tspan
       sodipodi:role="line"
       id="tspan4763-1-6-3-1"
       x="-120.49038"
       y="135.52202"
       style="font-style:normal;font-variant:normal;font-weight:normal;font-stretch:normal;font-size:3.52777767px;font-family:sans-serif;-inkscape-font-specification:sans-serif;stroke-width:0.26458332px">verde</tspan></text>
  <text
     xml:space="preserve"
     style="font-style:normal;font-variant:normal;font-weight:normal;font-stretch:normal;font-size:3.52777767px;line-height:6.61458349px;font-family:sans-serif;-inkscape-font-specification:sans-serif;font-variant-ligatures:normal;font-variant-caps:normal;font-variant-numeric:normal;font-feature-settings:normal;text-align:start;letter-spacing:0px;word-spacing:0px;writing-mode:lr-tb;text-anchor:start;fill:#000000;fill-opacity:1;stroke:none;stroke-width:0.26458332px;stroke-linecap:butt;stroke-linejoin:miter;stroke-opacity:1"
     x="-121.69349"
     y="149.7244"
     id="text4765-2-9-46-70"
     transform="rotate(-90)"
     inkscape:export-xdpi="118.56437"
     inkscape:export-ydpi="118.56437"><tspan
       sodipodi:role="line"
       id="tspan4763-1-6-3-6"
       x="-121.69349"
       y="149.7244"
       style="font-style:normal;font-variant:normal;font-weight:normal;font-stretch:normal;font-size:3.52777767px;font-family:sans-serif;-inkscape-font-specification:sans-serif;stroke-width:0.26458332px">branco</tspan></text>
  <text
     xml:space="preserve"
     style="font-style:normal;font-variant:normal;font-weight:normal;font-stretch:normal;font-size:3.52777767px;line-height:6.61458349px;font-family:sans-serif;-inkscape-font-specification:sans-serif;font-variant-ligatures:normal;font-variant-caps:normal;font-variant-numeric:normal;font-feature-settings:normal;text-align:start;letter-spacing:0px;word-spacing:0px;writing-mode:lr-tb;text-anchor:start;fill:#000000;fill-opacity:1;stroke:none;stroke-width:0.26458332px;stroke-linecap:butt;stroke-linejoin:miter;stroke-opacity:1"
     x="-127.88839"
     y="236.37407"
     id="text4765-2-9-46-5"
     transform="rotate(-90)"
     inkscape:export-xdpi="118.56437"
     inkscape:export-ydpi="118.56437"><tspan
       sodipodi:role="line"
       id="tspan4763-1-6-3-3"
       x="-127.88839"
       y="236.37407"
       style="font-style:normal;font-variant:normal;font-weight:normal;font-stretch:normal;font-size:3.52777767px;font-family:sans-serif;-inkscape-font-specification:sans-serif;stroke-width:0.26458332px">verde</tspan></text>
  <text
     xml:space="preserve"
     style="font-style:normal;font-variant:normal;font-weight:normal;font-stretch:normal;font-size:3.52777767px;line-height:2.5px;font-family:sans-serif;-inkscape-font-specification:sans-serif;font-variant-ligatures:normal;font-variant-caps:normal;font-variant-numeric:normal;font-feature-settings:normal;text-align:start;letter-spacing:0px;word-spacing:0px;writing-mode:lr-tb;text-anchor:start;fill:#000000;fill-opacity:1;stroke:none;stroke-width:0.26458332px;stroke-linecap:butt;stroke-linejoin:miter;stroke-opacity:1"
     x="196.99026"
     y="90.349915"
     id="text4765-2-9-0-4"
     inkscape:export-xdpi="118.56437"
     inkscape:export-ydpi="118.56437"><tspan
       sodipodi:role="line"
       x="196.99026"
       y="90.349915"
       style="font-style:normal;font-variant:normal;font-weight:normal;font-stretch:normal;font-size:3.52777767px;line-height:2.5px;font-family:sans-serif;-inkscape-font-specification:sans-serif;stroke-width:0.26458332px"
       id="tspan4929-1">vermelho</tspan><tspan
       sodipodi:role="line"
       x="196.99026"
       y="92.849915"
       style="font-style:normal;font-variant:normal;font-weight:normal;font-stretch:normal;font-size:3.52777767px;line-height:2.5px;font-family:sans-serif;-inkscape-font-specification:sans-serif;stroke-width:0.26458332px"
       id="tspan4933-5">e branco</tspan><tspan
       sodipodi:role="line"
       x="196.99026"
       y="95.349915"
       style="font-style:normal;font-variant:normal;font-weight:normal;font-stretch:normal;font-size:3.52777767px;line-height:2.5px;font-family:sans-serif;-inkscape-font-specification:sans-serif;stroke-width:0.26458332px"
       id="tspan4927-5" /></text>
  <text
     xml:space="preserve"
     style="font-style:normal;font-variant:normal;font-weight:normal;font-stretch:normal;font-size:3.52777767px;line-height:2.5px;font-family:sans-serif;-inkscape-font-specification:sans-serif;font-variant-ligatures:normal;font-variant-caps:normal;font-variant-numeric:normal;font-feature-settings:normal;text-align:start;letter-spacing:0px;word-spacing:0px;writing-mode:lr-tb;text-anchor:start;fill:#000000;fill-opacity:1;stroke:none;stroke-width:0.26458332px;stroke-linecap:butt;stroke-linejoin:miter;stroke-opacity:1"
     x="-123.12544"
     y="162.16412"
     id="text4765-2-9-0-4-4"
     transform="rotate(-90)"
     inkscape:export-xdpi="118.56437"
     inkscape:export-ydpi="118.56437"><tspan
       sodipodi:role="line"
       x="-123.12544"
       y="162.16412"
       style="font-style:normal;font-variant:normal;font-weight:normal;font-stretch:normal;font-size:3.52777767px;line-height:2.5px;font-family:sans-serif;-inkscape-font-specification:sans-serif;stroke-width:0.26458332px"
       id="tspan4933-5-8">verde e</tspan><tspan
       sodipodi:role="line"
       x="-123.12544"
       y="164.66412"
       style="font-style:normal;font-variant:normal;font-weight:normal;font-stretch:normal;font-size:3.52777767px;line-height:2.5px;font-family:sans-serif;-inkscape-font-specification:sans-serif;stroke-width:0.26458332px"
       id="tspan4985">branco</tspan><tspan
       sodipodi:role="line"
       x="-123.12544"
       y="167.16412"
       style="font-style:normal;font-variant:normal;font-weight:normal;font-stretch:normal;font-size:3.52777767px;line-height:2.5px;font-family:sans-serif;-inkscape-font-specification:sans-serif;stroke-width:0.26458332px"
       id="tspan4927-5-3" /></text>
  <text
     xml:space="preserve"
     style="font-style:normal;font-variant:normal;font-weight:normal;font-stretch:normal;font-size:3.52777767px;line-height:2.5px;font-family:sans-serif;-inkscape-font-specification:sans-serif;font-variant-ligatures:normal;font-variant-caps:normal;font-variant-numeric:normal;font-feature-settings:normal;text-align:start;letter-spacing:0px;word-spacing:0px;writing-mode:lr-tb;text-anchor:start;fill:#000000;fill-opacity:1;stroke:none;stroke-width:0.26458332px;stroke-linecap:butt;stroke-linejoin:miter;stroke-opacity:1"
     x="-126.77895"
     y="263.10141"
     id="text4765-2-9-0-4-4-8"
     transform="rotate(-90)"
     inkscape:export-xdpi="118.56437"
     inkscape:export-ydpi="118.56437"><tspan
       sodipodi:role="line"
       x="-126.77895"
       y="263.10141"
       style="font-style:normal;font-variant:normal;font-weight:normal;font-stretch:normal;font-size:3.52777767px;line-height:2.5px;font-family:sans-serif;-inkscape-font-specification:sans-serif;stroke-width:0.26458332px"
       id="tspan4933-5-8-5">verde e</tspan><tspan
       sodipodi:role="line"
       x="-126.77895"
       y="265.60141"
       style="font-style:normal;font-variant:normal;font-weight:normal;font-stretch:normal;font-size:3.52777767px;line-height:2.5px;font-family:sans-serif;-inkscape-font-specification:sans-serif;stroke-width:0.26458332px"
       id="tspan4985-2">branco</tspan><tspan
       sodipodi:role="line"
       x="-126.77895"
       y="268.10141"
       style="font-style:normal;font-variant:normal;font-weight:normal;font-stretch:normal;font-size:3.52777767px;line-height:2.5px;font-family:sans-serif;-inkscape-font-specification:sans-serif;stroke-width:0.26458332px"
       id="tspan4927-5-3-2" /></text>
</svg>
